<svg width="29" height="48" viewBox="0 0 29 48" fill="none" xmlns="http://www.w3.org/2000/svg">
<path fill-rule="evenodd" clip-rule="evenodd" d="M16.7871 0.159062C18.1613 -0.174944 19.6191 0.0170682 21.16 0.735124C22.6769 1.53331 24.143 3.23179 25.5577 5.83066L27.5952 9.574C29.0098 12.1729 29.356 14.6735 28.634 17.0755C27.8878 19.5576 26.4663 22.1675 24.3699 24.9037C23.0704 26.7424 22.0543 28.2946 21.3224 29.5602C20.6461 30.6759 20.2158 31.7349 20.031 32.7369L28.9076 46.8379L27.3301 47.8164L21.9124 39.2101C21.7327 40.2692 21.3439 41.2852 20.744 42.2579C19.6016 44.0123 18.0877 45.395 16.2025 46.4061C14.9981 47.0521 13.668 47.5308 12.2131 47.841C10.839 48.175 9.38095 47.9828 7.83998 47.2647C6.3231 46.4665 4.85698 44.768 3.44228 42.1692L1.40486 38.426C-0.00984544 35.8271 -0.355978 33.3263 0.365972 30.9244C1.11222 28.4422 2.5339 25.8324 4.63033 23.0961C5.92981 21.2574 6.94572 19.7052 7.67761 18.4396C8.40364 17.2419 8.84604 16.1095 9.0056 15.043L7.06825 11.4835C6.76926 9.42642 7.16399 7.51257 8.25605 5.74187C9.39839 3.98754 10.9123 2.60485 12.7975 1.59371C14.0019 0.9477 15.3322 0.469288 16.7871 0.159062ZM18.24 5.62567C17.2353 5.02289 16.269 4.80204 15.3421 4.9634C14.4152 5.12482 13.5588 5.41667 12.7734 5.83792C10.4172 7.10175 9.16799 8.8459 9.0259 11.0707C8.97653 11.6434 8.98251 12.2323 9.04265 12.8373L11.3191 17.0195C11.2481 18.1319 10.7849 19.4253 9.94844 20.7469C9.1119 22.0685 8.24908 23.4047 7.36018 24.7545C6.14559 26.7491 5.35139 28.5857 4.9789 30.263C4.63057 31.8602 4.99453 33.6464 6.06971 35.6216L7.72504 38.6629C8.74369 40.5342 9.75535 41.7713 10.7601 42.3741C11.7648 42.977 12.7312 43.1978 13.6582 43.0364C14.585 42.875 15.4412 42.5831 16.2266 42.1619C18.5828 40.8981 19.832 39.1539 19.9741 36.9291C19.9953 36.6832 20.0057 36.4343 20.0067 36.1825L12.8364 24.792L14.4139 23.8137L17.9811 29.4806C18.2116 28.7669 18.5695 28.0146 19.0516 27.2529C19.8881 25.9313 20.7509 24.5951 21.6398 23.2453C22.8544 21.2507 23.6486 19.4141 24.0211 17.7368C24.3694 16.1396 24.0057 14.3534 22.9305 12.3782L21.275 9.33693C20.2563 7.46561 19.2447 6.2285 18.24 5.62567Z" fill="black"/>
</svg>
