<svg width="28" height="48" viewBox="0 0 28 48" fill="none" xmlns="http://www.w3.org/2000/svg">
<path d="M15.4948 0.194397C16.8207 -0.170221 18.2424 -0.0218168 19.7594 0.638733C21.2554 1.37846 22.7271 3.00076 24.1735 5.50592L26.2565 9.11432C27.7028 11.6195 28.1084 14.0578 27.4733 16.4288C26.8168 18.8788 25.5078 21.4723 23.5465 24.2081C22.3347 26.0435 21.3897 27.5907 20.7135 28.8497C19.9873 30.1375 19.5802 31.342 19.4918 32.462C19.4751 32.6746 19.4752 32.8914 19.4899 33.1124L25.443 43.4239L24.8659 43.7569L21.5329 37.9835C21.5304 39.4241 21.1554 40.7981 20.4049 42.1055C19.3435 43.854 17.9107 45.2496 16.1071 46.2911C14.9547 46.9564 13.6751 47.4612 12.2702 47.8047C10.9442 48.1694 9.52167 48.021 8.00454 47.3604C6.5087 46.6206 5.03776 44.9982 3.59146 42.4932L1.50747 38.8848C0.0612722 36.3797 -0.344449 33.9412 0.290676 31.5704C0.947216 29.1202 2.25702 26.5269 4.21841 23.7911C5.43023 21.9557 6.37426 20.4084 7.05044 19.1495C7.77671 17.8616 8.18381 16.6571 8.27212 15.5372C8.28976 15.3133 8.28932 15.0848 8.27212 14.8516L6.36392 11.546C6.01663 9.54069 6.34795 7.65673 7.36001 5.89362C8.42152 4.14505 9.85409 2.74953 11.6579 1.70807C12.8103 1.04269 14.0897 0.53796 15.4948 0.194397ZM17.0573 5.50592C16.0644 4.94346 15.1195 4.75319 14.2233 4.93658C13.3272 5.12001 12.5031 5.42947 11.7516 5.86334C9.49735 7.16498 8.33224 8.90647 8.25552 11.088C8.19673 12.1154 8.31795 13.191 8.61782 14.3145L8.96743 14.919L9.87173 16.4844L10.5495 17.6592C10.5112 18.7501 10.0972 20.0291 9.32095 21.3458C8.54464 22.6624 7.74306 23.9943 6.91665 25.3399C5.79169 27.3256 5.0711 29.145 4.75552 30.7969C4.46117 32.3699 4.86327 34.1087 5.96255 36.0128L7.65493 38.9434C8.69632 40.7471 9.71388 41.9306 10.7067 42.4932C11.6994 43.0557 12.6445 43.2458 13.5407 43.0626C14.4367 42.8792 15.2609 42.5696 16.0124 42.1358C18.2668 40.8341 19.4327 39.0928 19.5094 36.9112C19.563 35.9749 19.4666 34.9985 19.2223 33.9825L13.3649 23.837L13.942 23.504L17.3356 29.3819C17.514 28.5294 17.8853 27.6011 18.444 26.6534C19.2202 25.3368 20.022 24.0057 20.8483 22.6602C21.9734 20.6744 22.6938 18.8543 23.0094 17.2022C23.3037 15.6293 22.9007 13.8904 21.8014 11.9864L20.109 9.05573C19.0676 7.25185 18.0502 6.06846 17.0573 5.50592Z" fill="white"/>
</svg>
