<svg width="139" height="240" viewBox="0 0 139 240" fill="none" xmlns="http://www.w3.org/2000/svg">
<path fill-rule="evenodd" clip-rule="evenodd" d="M77.4732 0.972395C84.1031 -0.850787 91.2127 -0.110008 98.7984 3.1931C106.278 6.89177 113.636 15.0041 120.868 27.53L131.284 45.571C138.516 58.0974 140.543 70.2892 137.367 82.1443C134.084 94.3953 127.538 107.363 117.731 121.043C111.672 130.22 106.95 137.957 103.569 144.252C99.9376 150.691 97.901 156.712 97.4595 162.311C97.3758 163.373 97.3708 164.456 97.4439 165.559L127.214 217.123L124.328 218.789L107.666 189.929C107.652 197.13 105.774 203.998 102.022 210.533C96.7144 219.276 89.5507 226.25 80.5318 231.458C74.7692 234.785 68.3728 237.309 61.3472 239.027C54.7172 240.85 47.6077 240.111 40.022 236.807C32.5423 233.109 25.1856 224.996 17.9536 212.47L7.53761 194.429C0.305546 181.903 -1.72209 169.711 1.45363 157.856C4.7363 145.605 11.2832 132.637 21.0903 118.958C27.1498 109.78 31.8715 102.044 35.2525 95.7488C38.8837 89.3096 40.9193 83.2889 41.3609 77.6892C41.4491 76.5698 41.4497 75.4273 41.3638 74.2615L31.8198 57.7312C30.0833 47.7043 31.7375 38.2835 36.7984 29.4675C42.1059 20.7246 49.2696 13.7491 58.2886 8.54173C64.0511 5.21477 70.4476 2.69024 77.4732 0.972395ZM85.2876 27.53C80.3231 24.7173 75.5981 23.7693 71.1167 24.6863C66.6361 25.6034 62.5159 27.1487 58.7583 29.3181C47.4858 35.8268 41.6579 44.5345 41.2749 55.4431C40.9813 60.5741 41.5843 65.9444 43.0796 71.5544L52.7476 88.2986C52.5564 93.7531 50.4842 100.147 46.603 106.73C42.7214 113.314 38.7146 119.972 34.5825 126.7C28.9571 136.629 25.3519 145.727 23.7739 153.987C22.3022 161.852 24.3166 170.545 29.813 180.065L38.2759 194.722C43.4833 203.742 48.5693 209.658 53.5337 212.47C58.4982 215.283 63.2232 216.231 67.7046 215.314C72.1851 214.397 76.3045 212.852 80.062 210.682C91.3347 204.174 97.1634 195.466 97.5464 184.557C97.8141 179.879 97.3361 175.003 96.1167 169.926L66.8228 119.188L69.7095 117.521L86.6753 146.908C87.5678 142.646 89.4254 138.007 92.2183 133.27C96.0999 126.687 100.107 120.028 104.239 113.301C109.864 103.372 113.468 94.2737 115.046 86.0134C116.518 78.1485 114.505 69.4556 109.008 59.9353L100.545 45.2781C95.338 36.2586 90.2521 30.3428 85.2876 27.53Z" fill="black"/>
</svg>
