<svg width="144" height="240" viewBox="0 0 144 240" fill="none" xmlns="http://www.w3.org/2000/svg">
<path fill-rule="evenodd" clip-rule="evenodd" d="M83.3567 0.795312C90.1801 -0.87472 97.4189 0.0853409 105.071 3.67562C112.603 7.66657 119.883 16.159 126.907 29.1533L137.024 47.87C144.049 60.8647 145.768 73.3675 142.183 85.3773C138.477 97.7882 131.419 110.837 121.009 124.519C114.557 133.712 109.511 141.473 105.877 147.801C102.518 153.38 100.382 158.675 99.4642 163.684L143.541 234.189L135.708 239.082L108.806 196.051C107.914 201.346 105.983 206.426 103.004 211.29C97.3322 220.061 89.8146 226.975 80.454 232.031C74.4733 235.26 67.8686 237.654 60.6445 239.205C53.821 240.875 46.5813 239.914 38.9295 236.323C31.3975 232.332 24.1174 223.84 17.0927 210.846L6.97586 192.13C-0.0488877 179.135 -1.76761 166.632 1.81724 154.622C5.52274 142.211 12.5821 129.162 22.992 115.481C29.4446 106.287 34.4891 98.5261 38.1233 92.1979C41.7284 86.2095 43.9252 80.5476 44.7175 75.2148L35.0975 57.4176C33.6129 47.1321 35.5729 37.5629 40.9956 28.7094C46.6679 19.9377 54.1854 13.0243 63.5461 7.96856C69.5269 4.7385 76.1324 2.34644 83.3567 0.795312ZM90.5708 28.1284C85.5822 25.1145 80.7841 24.0102 76.1813 24.817C71.579 25.6241 67.3265 27.0833 63.4265 29.1896C51.7269 35.5087 45.5238 44.2295 44.8182 55.3537C44.5731 58.2169 44.6028 61.1614 44.9014 64.1867L56.2054 85.0973C55.8529 90.6596 53.5524 97.1265 49.3991 103.734C45.2453 110.343 40.9609 117.024 36.5471 123.772C30.516 133.746 26.5724 142.929 24.7228 151.315C22.9932 159.301 24.8004 168.232 30.1393 178.108L38.3588 193.314C43.417 202.671 48.4403 208.857 53.4292 211.871C58.4182 214.885 63.2168 215.989 67.8199 215.182C72.4221 214.375 76.6736 212.916 80.5735 210.809C92.2733 204.49 98.4763 195.77 99.1818 184.645C99.2871 183.416 99.3385 182.172 99.3435 180.912L63.7394 123.96L71.5723 119.068L89.2853 147.403C90.4298 143.835 92.2073 140.073 94.6009 136.265C98.7548 129.656 103.039 122.975 107.453 116.227C113.484 106.253 117.428 97.0704 119.277 88.6839C121.007 80.6982 119.201 71.767 113.862 61.8909L105.641 46.6846C100.583 37.328 95.5597 31.1425 90.5708 28.1284Z" fill="black"/>
</svg>
